<svg viewBox="0 0 450 302" xmlns="http://www.w3.org/2000/svg"><path d="m217.13 259.8c-23.63 7.39-58.44 12.2-93.56 12.2s-69.94-4.81-93.57-12.2v-83.12h64.51v40.76h54.92v-175.24h67.7z" fill="#ff865a"/><path d="m326.43 30c-35.12 0-69.93 4.81-93.56 12.2v217.6h67.7v-41.8h54.92v41.72h64.51v-217.52c-23.63-7.39-58.44-12.2-93.57-12.2zm29.06 135h-54.92v-80.44h54.92z" fill="#ff865a"/><g fill="#bf6544"><path d="m124.51 217.44v-10.76l-30-30v40.76z"/><path d="m326.43 30q-6.58 0-13.13.22 6.54-.21 13.13-.22z"/><path d="m306.78 30.49c2.17-.1 4.34-.2 6.52-.27-2.18.07-4.3.17-6.52.27z"/><path d="m300.57 84.56v80.45h30v-50.45h24.92v-30z"/><path d="m420 42.2v83.12 134.37h-64.51l30 30h64.51v-134.37-83.12z"/><path d="m355.49 218h-54.92v41.8h-67.7v-201.86l-15.74-15.74v217.6c-23.63 7.39-58.44 12.2-93.56 12.2s-69.94-4.81-93.57-12.2l30 30c23.63 7.39 58.44 12.2 93.57 12.2s69.93-4.81 93.56-12.2v-15.74l15.74 15.74h67.7v-41.8h24.92z"/><path d="m293.93 31.34c2.11-.17 4.25-.33 6.39-.47-2.14.13-4.32.3-6.39.47z"/></g></svg>