<svg viewBox="0 0 450 302" xmlns="http://www.w3.org/2000/svg"><path d="m217.13 259.8c-23.63 7.39-58.44 12.2-93.56 12.2s-69.94-4.81-93.57-12.2v-83.12h64.51v40.76h54.92v-175.24h67.7z" fill="#ff865a"/><path d="m326.43 30c-35.12 0-69.93 4.81-93.56 12.2v217.6h67.7v-41.8h54.92v41.72h64.51v-217.52c-23.63-7.39-58.44-12.2-93.57-12.2zm29.06 135h-54.92v-80.44h54.92z" fill="#ff865a"/><g fill="#bf6544"><path d="m30 259.8v-83.12h-30v83.12c23.63 7.39 58.44 12.2 93.57 12.2 5 0 10-.1 15-.29-29.85-1.14-58.31-5.58-78.57-11.91z"/><path d="m119.43 42.2h30v175.24h-30z"/><path d="m325.49 125.32v39.69h30v-39.69-40.76h-30z"/><path d="m325.49 217.97h30v41.72h-30z"/><path d="m296.43 30c-35.12 0-69.93 4.81-93.56 12.2h14.26v217.6h15.74v-217.6c20.25-6.33 48.72-10.77 78.56-11.91-4.97-.19-9.98-.29-15-.29z"/></g></svg>