<svg viewBox="0 0 450 302" xmlns="http://www.w3.org/2000/svg"><path d="m217.13 259.8c-23.63 7.39-58.44 12.2-93.56 12.2s-69.94-4.81-93.57-12.2v-83.12h64.51v40.76h54.92v-175.24h67.7z" fill="#ff865a"/><path d="m326.43 30c-35.12 0-69.93 4.81-93.56 12.2v217.6h67.7v-41.8h54.92v41.72h64.51v-217.52c-23.63-7.39-58.44-12.2-93.57-12.2zm29.06 135h-54.92v-80.44h54.92z" fill="#ff865a"/><path d="m217.13 259.8c-23.63 7.39-58.44 12.2-93.56 12.2s-69.94-4.81-93.57-12.2v-83.12h64.51v40.76h54.92v-175.24h67.7z" fill="#ff865a"/><path d="m326.43 30c-35.12 0-69.93 4.81-93.56 12.2v217.6h67.7v-41.8h54.92v41.72h64.51v-217.52c-23.63-7.39-58.44-12.2-93.57-12.2zm29.06 135h-54.92v-80.44h54.92z" fill="#ff865a"/><g fill="#bf6544"><path d="m156.07 270.66c-2.11.17-4.25.33-6.39.47 2.14-.13 4.32-.3 6.39-.47z"/><path d="m123.57 272q6.59 0 13.13-.22-6.54.21-13.13.22z"/><path d="m143.22 271.51c-2.17.1-4.34.2-6.52.27 2.18-.07 4.35-.17 6.52-.27z"/><path d="m300.57 259.8 30-30v-11.83h-30z"/><path d="m356.43 0c-35.12 0-69.93 4.81-93.56 12.2l-15.74 15.74v-15.74h-67.7l-30 30v145.24h-24.92v-40.76h-64.51l-30 30h64.51v40.76h54.92v-175.24h67.7v217.6l15.74-15.74v-201.86c23.63-7.39 58.44-12.2 93.56-12.2s69.94 4.81 93.57 12.2v217.49l30-30v-217.49c-23.63-7.39-58.44-12.2-93.57-12.2z"/><path d="m300.57 84.56v80.45h54.92v-30h-24.92v-50.45z"/></g></svg>