<svg viewBox="0 0 450 302" xmlns="http://www.w3.org/2000/svg"><path d="m217.13 259.8c-23.63 7.39-58.44 12.2-93.56 12.2s-69.94-4.81-93.57-12.2v-83.12h64.51v40.76h54.92v-175.24h67.7z" fill="#ff865a"/><path d="m326.43 30c-35.12 0-69.93 4.81-93.56 12.2v217.6h67.7v-41.8h54.92v41.72h64.51v-217.52c-23.63-7.39-58.44-12.2-93.57-12.2zm29.06 135h-54.92v-80.44h54.92z" fill="#ff865a"/><g fill="#bf6544"><path d="m94.51 187.44h54.93v30h-54.93z"/><path d="m30 146.68h64.51v30h-64.51z"/><path d="m149.43 12.2h67.7v30h-67.7z"/><path d="m300.57 135.01h54.93v30h-54.93z"/><path d="m326.43 0c-35.12 0-69.93 4.81-93.56 12.2v30c23.63-7.39 58.44-12.2 93.56-12.2s69.94 4.81 93.57 12.2v-30c-23.63-7.39-58.44-12.2-93.57-12.2z"/></g></svg>