<svg viewBox="0 0 450 302" xmlns="http://www.w3.org/2000/svg"><path d="m217.13 259.8c-23.63 7.39-58.44 12.2-93.56 12.2s-69.94-4.81-93.57-12.2v-83.12h64.51v40.76h54.92v-175.24h67.7z" fill="#ff865a"/><path d="m326.43 30c-35.12 0-69.93 4.81-93.56 12.2v217.6h67.7v-41.8h54.92v41.72h64.51v-217.52c-23.63-7.39-58.44-12.2-93.57-12.2zm29.06 135h-54.92v-80.44h54.92z" fill="#ff865a"/><g fill="#bf6544"><path d="m94.51 176.68-30-30h-64.51v83.12l30 30v-83.12z"/><path d="m326.43 30c35.13 0 69.94 4.81 93.57 12.2l-30-30c-23.63-7.39-58.44-12.2-93.57-12.2s-69.93 4.81-93.56 12.2v15.74l-15.74-15.74h-67.7v175.24h-24.92v30h54.92v-175.24h67.7v201.86l15.74 15.74v-217.6c23.63-7.39 58.44-12.2 93.56-12.2z"/><path d="m325.49 217.97v11.72l30 30v-41.72z"/><path d="m325.49 95.32v39.69h-24.92v30h54.92v-39.69-40.76h-30z"/></g></svg>