<svg viewBox="0 0 450 302" xmlns="http://www.w3.org/2000/svg"><path d="m217.13 259.8c-23.63 7.39-58.44 12.2-93.56 12.2s-69.94-4.81-93.57-12.2v-83.12h64.51v40.76h54.92v-175.24h67.7z" fill="#ff865a"/><path d="m326.43 30c-35.12 0-69.93 4.81-93.56 12.2v217.6h67.7v-41.8h54.92v41.72h64.51v-217.52c-23.63-7.39-58.44-12.2-93.57-12.2zm29.06 135h-54.92v-80.44h54.92z" fill="#ff865a"/><g fill="#bf6544"><path d="m149.43 42.2-30 30v145.24h30z"/><path d="m325.49 165.01h30v-39.69-40.76h-54.92v30h24.92v40.76z"/><path d="m232.87 42.2-15.74 15.74v201.86c-23.63 7.39-58.44 12.2-93.56 12.2s-69.94-4.81-93.57-12.2v-83.12l-30 30v83.12c23.63 7.39 58.44 12.2 93.57 12.2s69.93-4.81 93.56-12.2l15.74-15.74v15.74h67.7l30-30h-67.7z"/><path d="m355.49 217.97h-54.92v30h24.92v41.72h64.51l30-30h-64.51z"/></g></svg>