<svg viewBox="0 0 450 302" xmlns="http://www.w3.org/2000/svg"><path d="m217.13 259.8c-23.63 7.39-58.44 12.2-93.56 12.2s-69.94-4.81-93.57-12.2v-83.12h64.51v40.76h54.92v-175.24h67.7z" fill="#66fcf1"/><path d="m326.43 30c-35.12 0-69.93 4.81-93.56 12.2v217.6h67.7v-41.8h54.92v41.72h64.51v-217.52c-23.63-7.39-58.44-12.2-93.57-12.2zm29.06 135h-54.92v-80.44h54.92z" fill="#66fcf1"/><g fill="#45a29e"><path d="m300.57 217.97h30v41.83h-30z"/><path d="m300.57 84.56h30v80.45h-30z"/><path d="m356.43 30c-5 0-10 .1-15 .29 29.85 1.14 58.31 5.58 78.57 11.91v217.49h30v-217.49c-23.63-7.39-58.44-12.2-93.57-12.2z"/><path d="m94.51 176.68h30v40.76h-30z"/><path d="m232.87 259.8v-217.6h-15.74v217.6c-20.25 6.33-48.72 10.77-78.56 11.91 5 .19 10 .29 15 .29 35.12 0 69.93-4.81 93.56-12.2z"/></g></svg>